{
    "asset" : {
        "generator" : "Khronos glTF Blender I/O v3.2.43",
        "version" : "2.0"
    },
    "scene" : 0,
    "scenes" : [
        {
            "name" : "Scene",
            "nodes" : [
                0
            ]
        }
    ],
    "nodes" : [
        {
            "mesh" : 0,
            "name" : "scar.001"
        }
    ],
    "materials" : [
        {
            "doubleSided" : true,
            "name" : "scarL.001",
            "normalTexture" : {
                "index" : 0
            },
            "pbrMetallicRoughness" : {
                "baseColorTexture" : {
                    "index" : 1
                },
                "metallicRoughnessTexture" : {
                    "index" : 2
                }
            }
        }
    ],
    "meshes" : [
        {
            "name" : "scar.001",
            "primitives" : [
                {
                    "attributes" : {
                        "POSITION" : 0,
                        "NORMAL" : 1,
                        "TEXCOORD_0" : 2
                    },
                    "indices" : 3,
                    "material" : 0
                }
            ]
        }
    ],
    "textures" : [
        {
            "sampler" : 0,
            "source" : 0
        },
        {
            "sampler" : 0,
            "source" : 1
        },
        {
            "sampler" : 0,
            "source" : 2
        }
    ],
    "images" : [
        {
            "mimeType" : "image/png",
            "name" : "scarL_Normal",
            "uri" : "scarL_Normal.png"
        },
        {
            "mimeType" : "image/png",
            "name" : "scarL_BaseColor",
            "uri" : "scarL_BaseColor.png"
        },
        {
            "mimeType" : "image/png",
            "name" : "scarL_Metalness-scarL_Roughness",
            "uri" : "scarL_Metalness-scarL_Roughness.png"
        }
    ],
    "accessors" : [
        {
            "bufferView" : 0,
            "componentType" : 5126,
            "count" : 15161,
            "max" : [
                2.5645618438720703,
                56.84956741333008,
                8.36722469329834
            ],
            "min" : [
                -4.101337909698486,
                -31.758930206298828,
                -19.320375442504883
            ],
            "type" : "VEC3"
        },
        {
            "bufferView" : 1,
            "componentType" : 5126,
            "count" : 15161,
            "type" : "VEC3"
        },
        {
            "bufferView" : 2,
            "componentType" : 5126,
            "count" : 15161,
            "type" : "VEC2"
        },
        {
            "bufferView" : 3,
            "componentType" : 5123,
            "count" : 53676,
            "type" : "SCALAR"
        }
    ],
    "bufferViews" : [
        {
            "buffer" : 0,
            "byteLength" : 181932,
            "byteOffset" : 0
        },
        {
            "buffer" : 0,
            "byteLength" : 181932,
            "byteOffset" : 181932
        },
        {
            "buffer" : 0,
            "byteLength" : 121288,
            "byteOffset" : 363864
        },
        {
            "buffer" : 0,
            "byteLength" : 107352,
            "byteOffset" : 485152
        }
    ],
    "samplers" : [
        {
            "magFilter" : 9729,
            "minFilter" : 9987
        }
    ],
    "buffers" : [
        {
            "byteLength" : 592504,
            "uri" : "scar.bin"
        }
    ]
}
