{
    "asset" : {
        "generator" : "Khronos glTF Blender I/O v3.2.43",
        "version" : "2.0"
    },
    "scene" : 0,
    "scenes" : [
        {
            "name" : "Scene",
            "nodes" : [
                0
            ]
        }
    ],
    "nodes" : [
        {
            "mesh" : 0,
            "name" : "Sphere",
            "rotation" : [
                0.7071068286895752,
                0,
                0,
                0.7071067094802856
            ]
        }
    ],
    "materials" : [
        {
            "doubleSided" : true,
            "name" : "Material.001",
            "normalTexture" : {
                "index" : 0
            },
            "pbrMetallicRoughness" : {
                "baseColorTexture" : {
                    "index" : 1
                },
                "metallicRoughnessTexture" : {
                    "index" : 2
                }
            }
        }
    ],
    "meshes" : [
        {
            "name" : "Sphere.001",
            "primitives" : [
                {
                    "attributes" : {
                        "POSITION" : 0,
                        "NORMAL" : 1,
                        "TEXCOORD_0" : 2
                    },
                    "indices" : 3,
                    "material" : 0
                }
            ]
        }
    ],
    "textures" : [
        {
            "sampler" : 0,
            "source" : 0
        },
        {
            "sampler" : 0,
            "source" : 1
        },
        {
            "sampler" : 0,
            "source" : 2
        }
    ],
    "images" : [
        {
            "mimeType" : "image/png",
            "name" : "iron-rusted4-normal",
            "uri" : "iron-rusted4-normal.png"
        },
        {
            "mimeType" : "image/png",
            "name" : "iron-rusted4-basecolor",
            "uri" : "iron-rusted4-basecolor.png"
        },
        {
            "mimeType" : "image/png",
            "name" : "iron-rusted4-metallic-smoothness.png",
            "uri" : "iron-rusted4-metallic-smoothness.png"
        }
    ],
    "accessors" : [
        {
            "bufferView" : 0,
            "componentType" : 5126,
            "count" : 46734,
            "max" : [
                0.9840620160102844,
                0.9840620160102844,
                0.9961379766464233
            ],
            "min" : [
                -0.9840620160102844,
                -0.9840620160102844,
                -0.9961379766464233
            ],
            "type" : "VEC3"
        },
        {
            "bufferView" : 1,
            "componentType" : 5126,
            "count" : 46734,
            "type" : "VEC3"
        },
        {
            "bufferView" : 2,
            "componentType" : 5126,
            "count" : 46734,
            "type" : "VEC2"
        },
        {
            "bufferView" : 3,
            "componentType" : 5123,
            "count" : 190464,
            "type" : "SCALAR"
        }
    ],
    "bufferViews" : [
        {
            "buffer" : 0,
            "byteLength" : 560808,
            "byteOffset" : 0
        },
        {
            "buffer" : 0,
            "byteLength" : 560808,
            "byteOffset" : 560808
        },
        {
            "buffer" : 0,
            "byteLength" : 373872,
            "byteOffset" : 1121616
        },
        {
            "buffer" : 0,
            "byteLength" : 380928,
            "byteOffset" : 1495488
        }
    ],
    "samplers" : [
        {
            "magFilter" : 9729,
            "minFilter" : 9987
        }
    ],
    "buffers" : [
        {
            "byteLength" : 1876416,
            "uri" : "sphere.bin"
        }
    ]
}
